<?xml version="1.0" encoding="UTF-8"?>
<svg xmlns="http://www.w3.org/2000/svg" version="1.1" viewBox="0 0 1729.2 1867.6">
  <!-- Generator: Adobe Illustrator 29.6.0, SVG Export Plug-In . SVG Version: 2.1.1 Build 207)  -->
  <defs>
    <style>
      .st0 {
        fill: #002169;
      }

      .st1 {
        fill: #fff;
      }
    </style>
  </defs>
  <g id="Layer_1">
    <path class="st0" d="M1648.7,59.5l-1528-.6v-.2l-62.8,66.1c-.7,47.6-1.7,107.4-2.1,136.9-6.1,467.7,25.7,1195.2,786.6,1547.1,402.7-186.6,707.3-507.1,787.3-1004.2,46.7-287.9,18.7-561.3,19-745.1h0Z"/>
  </g>
  <g id="Layer_2">
    <path class="st1" d="M855.9,1460.2c-.6,0-1.1,0-1.7,0-8.2-.5-15.8-4.3-21.1-10.6-5.5-6.4-35.6-27.4-62.1-45.9-79.5-55.6-212.6-148.7-313.7-263.2-127-143.8-168.6-282-123.8-410.9,24.6-70.6,62.9-124.1,113.9-158.9,44.8-30.6,99-45.7,156.6-43.8,60.9,2,123.4,22.9,175.9,58.6,30.9,21,56.3,45.8,74.9,72.6,16.9-24.6,40.2-47.8,69-68,51.1-36,112.7-58,173.4-62,59.3-3.9,115.2,9.9,161.6,39.8,53.3,34.4,93.4,88.6,119.1,161.2,25.6,72.5,23,149.6-7.9,229.1-25,64.4-69,131.5-130.8,199.3-108.9,119.4-246.6,213.6-320.5,264.2-19,13-38.6,26.4-42.6,30.3-5.5,5.3-12.9,8.3-20.5,8.3ZM594.3,585.6c-42.1,0-81.2,11.6-113.6,33.7-40.3,27.5-71.1,71.1-91.5,129.5-10.3,29.6-15,60.3-14,91.2,1,29,7,59.1,17.9,89.5,19.8,54.9,56.2,112.7,108.4,171.7,96.5,109.2,225.9,199.8,303.3,254,23.6,16.5,40.3,28.3,52.2,37.4,7.3-5.2,16.6-11.5,28.6-19.7,72-49.2,205.9-140.9,310.2-255.2,56.9-62.4,97-123.2,119.4-180.8,12.4-32,19.5-63.6,21-93.8,1.6-32.2-3-63.9-13.8-94.3-21.2-60-53.4-104.2-95.5-131.3-35.7-23-79.2-33.5-125.8-30.5-49.3,3.2-101.5,22-143.3,51.4-39.6,27.9-66.3,62.5-73.2,95.1-2.8,13.3-14.4,23-28,23.4-13.6.4-25.7-8.6-29.3-21.7-9.9-36-39.2-72.8-80.6-100.9-43.4-29.6-94.8-46.8-144.7-48.4-2.6,0-5.2-.1-7.8-.1Z"/>
  </g>
</svg>