<?xml version="1.0" encoding="UTF-8"?>
<svg id="Layer_1" xmlns="http://www.w3.org/2000/svg" version="1.1" viewBox="0 0 1729.2 1867.6">
  <!-- Generator: Adobe Illustrator 29.8.1, SVG Export Plug-In . SVG Version: 2.1.1 Build 2)  -->
  <defs>
    <style>
      .st0 {
        fill: #002169;
      }

      .st1 {
        fill: #fff;
      }
    </style>
  </defs>
  <g id="Layer_11" data-name="Layer_1">
    <g>
      <path class="st1" d="M830.4,1796.1c-87.7-40.5-168.7-88.1-240.8-141.5-68-50.3-129.9-107-184-168.6-50.5-57.5-95.7-120.8-134.2-188.1-35.5-62.1-66.4-129.3-91.8-200-43.9-121.9-72.6-254.7-87.8-405.9-13.5-134.8-14-261.1-12.6-366.8.4-27.3,1.9-126.8,2-127.8l.2-11.7,75.5-79.3,1468.2.6v30c-.1,42.7,1.5,91.6,3.2,143.4,5.2,157.1,11.7,352.6-21.4,556.4-36.5,226.6-124.2,425.6-260.8,591.3-124.4,150.9-289.4,274.7-490.6,367.9l-12.6,5.8-12.6-5.8Z"/>
      <path class="st1" d="M169.8,136.6l1425.3.6h0c-.3,171.5,25.8,426.5-17.7,695-74.6,463.7-358.8,762.7-734.4,936.7C133.2,1440.6,103.6,762,109.3,325.7c.4-27.5,2-127.7,2-127.7l58.6-61.5M144.1,76.6l-17.7,18.6-58.6,61.5-16.2,17-.4,23.5c0,1-1.6,100.6-2,127.8-1.4,106.6-1,233.9,12.7,370.2,7.2,71.4,17.6,140.3,31,204.7,15.2,72.9,34.8,143,58.3,208.4,26,72.3,57.6,141.1,94,204.7,39.5,69.1,85.9,134.1,137.7,193,55.6,63.2,119.1,121.4,188.7,172.9,73.8,54.5,156.5,103.2,246,144.6l25.2,11.7,25.2-11.7c205.3-95.1,373.9-221.6,501.2-376,68.3-82.9,125.3-174.8,169.4-273.1,45.9-102.5,78.9-214.4,97.9-332.4h0c33.5-206.6,27-403.8,21.7-562.2-1.7-51.5-3.3-100.2-3.2-142.4v-60.1c0,0-60,0-60,0l-1425.3-.6h-25.7Z"/>
    </g>
  </g>
  <g id="Layer_12" data-name="Layer_1">
    <path class="st0" d="M1595.1,137.1l-1425.3-.6v-.2l-58.6,61.7c-.7,44.4-1.6,100.2-2,127.7-5.7,436.3,24,1114.9,733.7,1443.2,375.6-174.1,659.8-473,734.4-936.7,43.6-268.6,17.4-523.6,17.7-695h0Z"/>
  </g>
  <g id="Layer_2">
    <path class="st1" d="M855.9,1443.7h-1.6c-7.6-.5-14.7-4-19.7-9.9-5.1-6-33.2-25.6-57.9-42.8-74.2-51.9-198.3-138.7-292.6-245.5-118.5-134.1-157.3-263.1-115.5-383.3,22.9-65.9,58.7-115.8,106.2-148.2,41.8-28.5,92.3-42.6,146.1-40.9,56.8,1.9,115.1,21.4,164.1,54.7,28.8,19.6,52.5,42.7,69.9,67.7,15.8-22.9,37.5-44.6,64.4-63.4,47.7-33.6,105.1-54.1,161.7-57.8,55.3-3.6,107.5,9.2,150.7,37.1,49.7,32.1,87.1,82.6,111.1,150.4,23.9,67.6,21.5,139.5-7.4,213.7-23.3,60.1-64.4,122.7-122,185.9-101.6,111.4-230,199.2-299,246.4-17.7,12.1-36,24.6-39.7,28.3-5.1,4.9-12,7.7-19.1,7.7h.3ZM611.9,627.9c-39.3,0-75.7,10.8-106,31.4-37.6,25.7-66.3,66.3-85.4,120.8-9.6,27.6-14,56.2-13.1,85.1.9,27.1,6.5,55.1,16.7,83.5,18.5,51.2,52.4,105.1,101.1,160.2,90,101.9,210.7,186.4,282.9,236.9,22,15.4,37.6,26.4,48.7,34.9,6.8-4.9,15.5-10.7,26.7-18.4,67.2-45.9,192.1-131.4,289.4-238.1,53.1-58.2,90.5-114.9,111.4-168.7,11.6-29.8,18.2-59.3,19.6-87.5,1.5-30-2.8-59.6-12.9-88-19.8-56-49.8-97.2-89.1-122.5-33.3-21.5-73.9-31.2-117.3-28.5-46,3-94.7,20.5-133.7,47.9-36.9,26-61.8,58.3-68.3,88.7-2.6,12.4-13.4,21.5-26.1,21.8-12.7.4-24-8-27.3-20.2-9.2-33.6-36.6-67.9-75.2-94.1-40.5-27.6-88.4-43.7-135-45.1-2.4,0-4.9,0-7.3,0v-.2Z"/>
  </g>
</svg>